# xmcd
#
# Track frame offsets:
#   150
#   11100
#   25209
#   37880
#   54135
#   69297
#   83019
#   92769
#   108139
#   122694
#   137537
#   151702
#   165534
#   178609
#
# Disc length: 2565 seconds
#
# Revision: 0
# Processed by: cddbd v1.5.2PL0 Copyright (c) Steve Scherf et al.
# Submitted via: uFREEDB ActiveX Control 1.5
#
DISCID=980a030e
DTITLE=Teodoro e Sampaio - Nova Série
DYEAR=1900
DGENRE=Country
TTITLE0=O Garanhão da Madrugada
TTITLE1=A Gostosona
TTITLE2=Virus da Paixão
TTITLE3=Anna Júlia
TTITLE4=O Garrafão
TTITLE5=Raimunda
TTITLE6=Quem Tem, Tem Medo
TTITLE7=A Solteirona
TTITLE8=Fogo no Rabo
TTITLE9=Bão Tamém
TTITLE10=Paixão Bandida
TTITLE11=Já Fui Bom Nisso
TTITLE12=O Pau Quebrou
TTITLE13=A Rabada da Cunhada
EXTD=
EXTT0=
EXTT1=
EXTT2=
EXTT3=
EXTT4=
EXTT5=
EXTT6=
EXTT7=
EXTT8=
EXTT9=
EXTT10=
EXTT11=
EXTT12=
EXTT13=
PLAYORDER=
